<?xml version="1.0" encoding="utf-8"?>
<!-- Generator: Adobe Illustrator 16.0.0, SVG Export Plug-In . SVG Version: 6.00 Build 0)  -->
<!DOCTYPE svg PUBLIC "-//W3C//DTD SVG 1.1//EN" "http://www.w3.org/Graphics/SVG/1.1/DTD/svg11.dtd">
<svg xmlns="http://www.w3.org/2000/svg" width="500" height="580">
    <text x="250" y="20" font-size="17" font-weight="bold" text-anchor="middle">Maven default phase</text>

    <defs>
        <marker id="arrowhead" viewBox="0 0 10 10" refX="10" refY="5" markerWidth="6" markerHeight="6" orient="auto">
            <path d="M0,0 L10,5 L0,10" fill="black" />
        </marker>
    </defs>

    <!-- Phases -->
    <text x="140" y="45" fill="#000000" font-size="16" text-anchor="middle">Phases</text>

    <rect x="50" y="60" width="180" height="40" fill="lightyellow" stroke="black" />
    <text x="135" y="85" fill="#000000" font-size="16" text-anchor="middle">process-resources</text>
    <line x1="140" y1="100" x2="140" y2="150" stroke="black" marker-end="url(#arrowhead)" stroke-width="2" />

    <rect x="50" y="150" width="180" height="40" fill="lightyellow" stroke="black" />
    <text x="140" y="175" fill="#000000" font-size="16" text-anchor="middle">compile</text>
    <line x1="140" y1="190" x2="140" y2="240" stroke="black" marker-end="url(#arrowhead)" stroke-width="2" />

    <rect x="50" y="240" width="180" height="40" fill="lightyellow" stroke="black" />
    <text x="140" y="265" fill="#000000" font-size="16" text-anchor="middle">test</text>
    <line x1="140" y1="280" x2="140" y2="330" stroke="black" marker-end="url(#arrowhead)" stroke-width="2"/>

    <rect x="50" y="330" width="180" height="40" fill="lightyellow" stroke="black" />
    <text x="140" y="355" fill="#000000" font-size="16" text-anchor="middle">package</text>
    <line x1="140" y1="370" x2="140" y2="420" stroke="black" marker-end="url(#arrowhead)" stroke-width="2"/>

    <rect x="50" y="420" width="180" height="40" fill="lightyellow" stroke="black" />
    <text x="140" y="445" fill="#000000" font-size="16" text-anchor="middle">install</text>
    <line x1="140" y1="460" x2="140" y2="510" stroke="black" marker-end="url(#arrowhead)" stroke-width="2" />

    <rect x="50" y="510" width="180" height="40" fill="lightyellow" stroke="black" />
    <text x="140" y="535" fill="#000000" font-size="16" text-anchor="middle">deploy</text>


    <!-- Goals -->
    <text x="330" y="45" fill="#000000" font-size="16" text-anchor="middle">Goals</text>

    <rect x="270" y="70" width="140" height="25" fill="pink" stroke="black" />
    <text x="340" y="85" fill="#000000" font-size="16" text-anchor="middle">resources</text>
    <line x1="230" y1="80" x2="270" y2="80" stroke="black" stroke-width="2"/>

    <rect x="270" y="160" width="140" height="25" fill="pink" stroke="black" />
    <text x="340" y="175" fill="#000000" font-size="16" text-anchor="middle">compile</text>
    <line x1="230" y1="170" x2="270" y2="170" stroke="black" stroke-width="2"/>

    <rect x="270" y="250" width="140" height="25" fill="pink" stroke="black" />
    <text x="340" y="265" fill="#000000" font-size="16" text-anchor="middle">test</text>
    <line x1="230" y1="260" x2="270" y2="260" stroke="black" stroke-width="2"/>

    <rect x="270" y="340" width="140" height="25" fill="pink" stroke="black" />
    <text x="340" y="355" fill="#000000" font-size="16" text-anchor="middle">jar</text>
    <line x1="230" y1="350" x2="270" y2="350" stroke="black" stroke-width="2"/>

    <rect x="270" y="430" width="140" height="25" fill="pink" stroke="black" />
    <text x="340" y="445" fill="#000000" font-size="16" text-anchor="middle">install</text>
    <line x1="230" y1="440" x2="270" y2="440" stroke="black" stroke-width="2"/>

    <rect x="270" y="520" width="140" height="25" fill="pink" stroke="black" />
    <text x="340" y="535" fill="#000000" font-size="16" text-anchor="middle">deploy</text>
    <line x1="230" y1="530" x2="270" y2="530" stroke="black" stroke-width="2"/>

</svg>