<?xml version="1.0" encoding="utf-8"?>
<!-- Generator: Adobe Illustrator 16.0.0, SVG Export Plug-In . SVG Version: 6.00 Build 0)  -->
<!DOCTYPE svg PUBLIC "-//W3C//DTD SVG 1.1//EN" "http://www.w3.org/Graphics/SVG/1.1/DTD/svg11.dtd">
<svg xmlns="http://www.w3.org/2000/svg" width="500" height="520">
    <text x="250" y="20" font-size="17" font-weight="bold" text-anchor="middle">Compilation Steps</text>

    <defs>
        <marker id="arrowhead" viewBox="0 0 10 10" refX="10" refY="5" markerWidth="6" markerHeight="6" orient="auto">
            <path d="M0,0 L10,5 L0,10" fill="black" />
        </marker>
    </defs>

    <!-- Input files -->
    <rect x="50" y="30" width="50" height="50" fill="lightyellow" stroke="black" />
    <text x="75" y="60" fill="#000000" font-size="16" text-anchor="middle">.h</text>
    <line x1="75" y1="80" x2="85" y2="100" stroke="black" marker-end="url(#arrowhead)" />

    <rect x="110" y="30" width="50" height="50" fill="lightgreen" stroke="black" />
    <text x="135" y="60" fill="#000000" font-size="16" text-anchor="middle">.cpp</text>
    <line x1="135" y1="80" x2="135" y2="100" stroke="black" marker-end="url(#arrowhead)" />

    <rect x="170" y="30" width="50" height="50" fill="lightyellow" stroke="black" />
    <text x="195" y="60" fill="#000000" font-size="16" text-anchor="middle">.h</text>
    <line x1="195" y1="80" x2="185" y2="100" stroke="black" marker-end="url(#arrowhead)" />

    <rect x="270" y="30" width="50" height="50" fill="lightyellow" stroke="black" />
    <text x="295" y="60" fill="#000000" font-size="16" text-anchor="middle">.h</text>
    <line x1="295" y1="80" x2="305" y2="100" stroke="black" marker-end="url(#arrowhead)" />

    <rect x="330" y="30" width="50" height="50" fill="lightgreen" stroke="black" />
    <text x="355" y="60" fill="#000000" font-size="16" text-anchor="middle">.cpp</text>
    <line x1="355" y1="80" x2="355" y2="100" stroke="black" marker-end="url(#arrowhead)" />

    <rect x="390" y="30" width="50" height="50" fill="lightyellow" stroke="black" />
    <text x="415" y="60" fill="#000000" font-size="16" text-anchor="middle">.h</text>
    <line x1="415" y1="80" x2="405" y2="100" stroke="black" marker-end="url(#arrowhead)" />

    <!-- Preprocessor -->
    <rect x="85" y="100" width="100" height="50" fill="lightblue" stroke="black" />
    <text x="135" y="130" fill="black" font-size="16" text-anchor="middle">Preprocessor</text>
    <line x1="135" y1="150" x2="135" y2="170" stroke="black" marker-end="url(#arrowhead)" />

    <rect x="305" y="100" width="100" height="50" fill="lightblue" stroke="black" />
    <text x="355" y="130" fill="black" font-size="16" text-anchor="middle">Preprocessor</text>
    <line x1="355" y1="150" x2="355" y2="170" stroke="black" marker-end="url(#arrowhead)" />

    <!-- Temporary file -->
    <rect x="85" y="170" width="100" height="50" fill="lightgreen" stroke="black" />
    <text x="135" y="200" fill="#000000" font-size="16" text-anchor="middle">.cpp*</text>
    <line x1="135" y1="220" x2="135" y2="240" stroke="black" marker-end="url(#arrowhead)" />

    <rect x="305" y="170" width="100" height="50" fill="lightgreen" stroke="black" />
    <text x="355" y="200" fill="#000000" font-size="16" text-anchor="middle">.cpp*</text>
    <line x1="355" y1="220" x2="355" y2="240" stroke="black" marker-end="url(#arrowhead)" />

    <!-- Compiler -->
    <rect x="85" y="240" width="100" height="50" fill="lightblue" stroke="black" />
    <text x="135" y="270" fill="#000000" font-size="16" text-anchor="middle">Compiler</text>
    <line x1="135" y1="290" x2="135" y2="310" stroke="black" marker-end="url(#arrowhead)" />

    <rect x="305" y="240" width="100" height="50" fill="lightblue" stroke="black" />
    <text x="355" y="270" fill="#000000" font-size="16" text-anchor="middle">Compiler</text>
    <line x1="355" y1="290" x2="355" y2="310" stroke="black" marker-end="url(#arrowhead)" />

    <!-- Object file -->
    <rect x="85" y="310" width="100" height="50" fill="lightgreen" stroke="black" />
    <text x="135" y="340" fill="#000000" font-size="16" text-anchor="middle">.obj</text>
    <line x1="135" y1="360" x2="240" y2="380" stroke="black" marker-end="url(#arrowhead)" />

    <rect x="305" y="310" width="100" height="50" fill="lightgreen" stroke="black" />
    <text x="355" y="340" fill="#000000" font-size="16" text-anchor="middle">.obj</text>
    <line x1="355" y1="360" x2="240" y2="380" stroke="black" marker-end="url(#arrowhead)" />

    <!-- Linker -->
    <rect x="195" y="380" width="100" height="50" fill="lightblue" stroke="black" />
    <text x="245" y="410" fill="#000000" font-size="16" text-anchor="middle">Linker</text>
    <line x1="240" y1="430" x2="240" y2="450" stroke="black" marker-end="url(#arrowhead)" />

    <!-- Executable file -->
    <rect x="195" y="450" width="100" height="50" fill="pink" stroke="black" />
    <text x="245" y="480" fill="#000000" font-size="16" text-anchor="middle">.exe</text>
</svg>

