<?xml version="1.0" encoding="utf-8"?>
<!-- Generator: Adobe Illustrator 16.0.0, SVG Export Plug-In . SVG Version: 6.00 Build 0)  -->
<!DOCTYPE svg PUBLIC "-//W3C//DTD SVG 1.1//EN" "http://www.w3.org/Graphics/SVG/1.1/DTD/svg11.dtd">
<svg xmlns="http://www.w3.org/2000/svg" width="500" height="1200">
    <text x="250" y="20" font-size="17" font-weight="bold" text-anchor="middle">EO compilation steps</text>

    <defs>
        <marker id="arrowhead" viewBox="0 0 10 10" refX="10" refY="5" markerWidth="6" markerHeight="6" orient="auto">
            <path d="M0,0 L10,5 L0,10" fill="black" />
        </marker>
    </defs>

    <!-- Phases -->
    <text x="140" y="45" fill="#000000" font-size="16" text-anchor="middle">Phases</text>

    <rect x="50" y="60" width="180" height="40" fill="lightyellow" stroke="black" />
    <text x="140" y="85" fill="#000000" font-size="16" text-anchor="middle">validate</text>
    <line x1="140" y1="100" x2="140" y2="140" stroke="black" marker-end="url(#arrowhead)" stroke-width="2" />

    <rect x="50" y="140" width="180" height="40" fill="lightyellow" stroke="black" />
    <text x="140" y="165" fill="#000000" font-size="16" text-anchor="middle">initialize</text>
    <line x1="140" y1="180" x2="140" y2="210" stroke="black" marker-end="url(#arrowhead)" stroke-width="2" />

    <rect x="50" y="210" width="180" height="40" fill="lightyellow" stroke="black" />
    <text x="135" y="235" fill="#000000" font-size="16" text-anchor="middle">generate-sources</text>
    <line x1="140" y1="250" x2="140" y2="280" stroke="black" marker-end="url(#arrowhead)" stroke-width="2" />

    <rect x="50" y="280" width="180" height="40" fill="lightyellow" stroke="black" />
    <text x="135" y="305" fill="#000000" font-size="16" text-anchor="middle">process-sources</text>
    <line x1="140" y1="320" x2="140" y2="360" stroke="black" marker-end="url(#arrowhead)" stroke-width="2" />

    <rect x="50" y="360" width="180" height="40" fill="lightyellow" stroke="black" />
    <text x="135" y="385" fill="#000000" font-size="16" text-anchor="middle">process-resources</text>
    <line x1="140" y1="400" x2="140" y2="420" stroke="black" marker-end="url(#arrowhead)" stroke-width="2" />

    <rect x="50" y="420" width="180" height="40" fill="lightyellow" stroke="black" />
    <text x="140" y="445" fill="#000000" font-size="16" text-anchor="middle">compile</text>
    <line x1="140" y1="460" x2="140" y2="525" stroke="black" marker-end="url(#arrowhead)" stroke-width="2" />

    <rect x="50" y="525" width="180" height="40" fill="lightyellow" stroke="black" />
    <text x="135" y="550" fill="#000000" font-size="16" text-anchor="middle">generate-test-sources</text>
    <line x1="140" y1="565" x2="140" y2="630" stroke="black" marker-end="url(#arrowhead)" stroke-width="2"/>

    <rect x="50" y="630" width="180" height="40" fill="lightyellow" stroke="black" />
    <text x="140" y="655" fill="#000000" font-size="16" text-anchor="middle">process-test-resources</text>
    <line x1="140" y1="670" x2="140" y2="685" stroke="black" marker-end="url(#arrowhead)" stroke-width="2" />

    <rect x="50" y="685" width="180" height="40" fill="lightyellow" stroke="black" />
    <text x="140" y="710" fill="#000000" font-size="16" text-anchor="middle">test-compile</text>
    <line x1="140" y1="725" x2="140" y2="760" stroke="black" marker-end="url(#arrowhead)" stroke-width="2"/>

    <rect x="50" y="760" width="180" height="40" fill="lightyellow" stroke="black" />
    <text x="140" y="785" fill="#000000" font-size="16" text-anchor="middle">test</text>
    <line x1="140" y1="800" x2="140" y2="880" stroke="black" marker-end="url(#arrowhead)" stroke-width="2"/>

    <rect x="50" y="880" width="180" height="40" fill="lightyellow" stroke="black" />
    <text x="140" y="905" fill="#000000" font-size="16" text-anchor="middle">prepare-package</text>
    <line x1="140" y1="920" x2="140" y2="975" stroke="black" marker-end="url(#arrowhead)" stroke-width="2"/>

    <rect x="50" y="975" width="180" height="40" fill="lightyellow" stroke="black" />
    <text x="140" y="1000" fill="#000000" font-size="16" text-anchor="middle">package</text>
    <line x1="140" y1="1015" x2="140" y2="1040" stroke="black" marker-end="url(#arrowhead)" stroke-width="2"/>

    <rect x="50" y="1040" width="180" height="40" fill="lightyellow" stroke="black" />
    <text x="140" y="1065" fill="#000000" font-size="16" text-anchor="middle">verify</text>
    <line x1="140" y1="1080" x2="140" y2="1100" stroke="black" marker-end="url(#arrowhead)" stroke-width="2"/>

    <rect x="50" y="1100" width="180" height="40" fill="lightyellow" stroke="black" />
    <text x="140" y="1125" fill="#000000" font-size="16" text-anchor="middle">install</text>
    <line x1="140" y1="1140" x2="140" y2="1155" stroke="black" marker-end="url(#arrowhead)" stroke-width="2" />

    <rect x="50" y="1155" width="180" height="40" fill="lightyellow" stroke="black" />
    <text x="140" y="1180" fill="#000000" font-size="16" text-anchor="middle">deploy</text>


    <!-- Goals -->
    <text x="330" y="45" fill="#000000" font-size="16" text-anchor="middle">Goals</text>

    <rect x="270" y="68" width="140" height="25" fill="pink" stroke="black" />
    <text x="340" y="85" fill="#000000" font-size="16" text-anchor="middle">enforce</text>
    <line x1="230" y1="80" x2="270" y2="80" stroke="black" stroke-width="2"/>

    <rect x="270" y="115" width="140" height="25" fill="pink" stroke="black" />
    <text x="340" y="133" fill="#000000" font-size="16" text-anchor="middle">create</text>
    <line x1="230" y1="160" x2="270" y2="125" stroke="black" stroke-width="2"/>

    <rect x="270" y="145" width="140" height="25" fill="pink" stroke="black" />
    <text x="340" y="163" fill="#000000" font-size="16" text-anchor="middle">create-timestamp</text>
    <line x1="230" y1="160" x2="270" y2="160" stroke="black" stroke-width="2"/>

    <rect x="270" y="175" width="140" height="25" fill="pink" stroke="black" />
    <text x="340" y="193" fill="#000000" font-size="16" text-anchor="middle">prepare-agent</text>
    <line x1="230" y1="160" x2="270" y2="190" stroke="black" stroke-width="2"/>

    <rect x="270" y="217" width="140" height="25" fill="green" stroke="black" />
    <text x="340" y="235" fill="#000000" font-size="16" text-anchor="middle">register</text>
    <line x1="230" y1="230" x2="270" y2="230" stroke="black" stroke-width="2"/>

    <rect x="270" y="260" width="140" height="25" fill="green" stroke="black" />
    <text x="340" y="278" fill="#000000" font-size="16" text-anchor="middle">assemble</text>
    <line x1="230" y1="305" x2="270" y2="270" stroke="black" stroke-width="2"/>

    <rect x="270" y="290" width="140" height="25" fill="green" stroke="black" />
    <text x="340" y="308" fill="#000000" font-size="16" text-anchor="middle">verify</text>
    <line x1="230" y1="305" x2="270" y2="305" stroke="black" stroke-width="2"/>

    <rect x="270" y="320" width="140" height="25" fill="green" stroke="black" />
    <text x="340" y="338" fill="#000000" font-size="16" text-anchor="middle">transpile</text>
    <line x1="230" y1="305" x2="270" y2="330" stroke="black" stroke-width="2"/>

    <rect x="270" y="368" width="140" height="25" fill="pink" stroke="black" />
    <text x="340" y="385" fill="#000000" font-size="16" text-anchor="middle">resources</text>
    <line x1="230" y1="380" x2="270" y2="380" stroke="black" stroke-width="2"/>

    <rect x="270" y="428" width="140" height="25" fill="pink" stroke="black" />
    <text x="340" y="445" fill="#000000" font-size="16" text-anchor="middle">compile</text>
    <line x1="230" y1="440" x2="270" y2="440" stroke="black" stroke-width="2"/>

    <rect x="270" y="470" width="140" height="25" fill="green" stroke="black" />
    <text x="340" y="487" fill="#000000" font-size="16" text-anchor="middle">register</text>
    <line x1="230" y1="545" x2="270" y2="480" stroke="black" stroke-width="2"/>

    <rect x="270" y="500" width="140" height="25" fill="green" stroke="black" />
    <text x="340" y="517" fill="#000000" font-size="16" text-anchor="middle">assemble</text>
    <line x1="230" y1="545" x2="270" y2="510" stroke="black" stroke-width="2"/>

    <rect x="270" y="530" width="140" height="25" fill="green" stroke="black" />
    <text x="340" y="547" fill="#000000" font-size="16" text-anchor="middle">verify</text>
    <line x1="230" y1="545" x2="270" y2="545" stroke="black" stroke-width="2"/>

    <rect x="270" y="560" width="140" height="25" fill="green" stroke="black" />
    <text x="340" y="577" fill="#000000" font-size="16" text-anchor="middle">transpile</text>
    <line x1="230" y1="545" x2="270" y2="575" stroke="black" stroke-width="2"/>

    <rect x="270" y="590" width="140" height="25" fill="green" stroke="black" />
    <text x="340" y="607" fill="#000000" font-size="16" text-anchor="middle">binarize</text>
    <line x1="230" y1="545" x2="270" y2="605" stroke="black" stroke-width="2"/>

    <rect x="270" y="637" width="140" height="25" fill="pink" stroke="black" />
    <text x="340" y="654" fill="#000000" font-size="16" text-anchor="middle">testResources</text>
    <line x1="230" y1="650" x2="270" y2="650" stroke="black" stroke-width="2"/>

    <rect x="270" y="692" width="140" height="25" fill="pink" stroke="black" />
    <text x="340" y="709" fill="#000000" font-size="16" text-anchor="middle">testCompile</text>
    <line x1="230" y1="705" x2="270" y2="705" stroke="black" stroke-width="2"/>

    <rect x="270" y="740" width="140" height="25" fill="pink" stroke="black" />
    <text x="340" y="757" fill="#000000" font-size="16" text-anchor="middle">test</text>
    <line x1="230" y1="780" x2="270" y2="750" stroke="black" stroke-width="2"/>

    <rect x="270" y="770" width="140" height="25" fill="pink" stroke="black" />
    <text x="340" y="787" fill="#000000" font-size="16" text-anchor="middle">check</text>
    <line x1="230" y1="780" x2="270" y2="780" stroke="black" stroke-width="2"/>

    <rect x="270" y="800" width="140" height="25" fill="pink" stroke="black" />
    <text x="340" y="817" fill="#000000" font-size="16" text-anchor="middle">report</text>
    <line x1="230" y1="780" x2="270" y2="815" stroke="black" stroke-width="2"/>

    <rect x="270" y="845" width="140" height="25" fill="pink" stroke="black" />
    <text x="340" y="862" fill="#000000" font-size="16" text-anchor="middle">versionalize</text>
    <line x1="230" y1="900" x2="270" y2="855" stroke="black" stroke-width="2"/>

    <rect x="270" y="875" width="140" height="25" fill="green" stroke="black" />
    <text x="340" y="892" fill="#000000" font-size="16" text-anchor="middle">copy</text>
    <line x1="230" y1="900" x2="270" y2="885" stroke="black" stroke-width="2"/>

    <rect x="270" y="905" width="140" height="25" fill="green" stroke="black" />
    <text x="340" y="922" fill="#000000" font-size="16" text-anchor="middle">unplace</text>
    <line x1="230" y1="900" x2="270" y2="920" stroke="black" stroke-width="2"/>

    <rect x="270" y="935" width="140" height="25" fill="green" stroke="black" />
    <text x="340" y="952" fill="#000000" font-size="16" text-anchor="middle">unspile</text>
    <line x1="230" y1="900" x2="270" y2="950" stroke="black" stroke-width="2"/>

    <rect x="270" y="983" width="140" height="25" fill="pink" stroke="black" />
    <text x="340" y="1000" fill="#000000" font-size="16" text-anchor="middle">jar</text>
    <line x1="230" y1="995" x2="270" y2="995" stroke="black" stroke-width="2"/>

    <rect x="270" y="1030" width="140" height="25" fill="pink" stroke="black" />
    <text x="340" y="1047" fill="#000000" font-size="16" text-anchor="middle">run</text>
    <line x1="230" y1="1060" x2="270" y2="1040" stroke="black" stroke-width="2"/>

    <rect x="270" y="1060" width="140" height="25" fill="pink" stroke="black" />
    <text x="340" y="1077" fill="#000000" font-size="16" text-anchor="middle">execute</text>
    <line x1="230" y1="1060" x2="270" y2="1070" stroke="black" stroke-width="2"/>

    <rect x="270" y="1108" width="140" height="25" fill="pink" stroke="black" />
    <text x="340" y="1125" fill="#000000" font-size="16" text-anchor="middle">install</text>
    <line x1="230" y1="1120" x2="270" y2="1120" stroke="black" stroke-width="2"/>

    <rect x="270" y="1163" width="140" height="25" fill="pink" stroke="black" />
    <text x="340" y="1180" fill="#000000" font-size="16" text-anchor="middle">deploy</text>
    <line x1="230" y1="1175" x2="270" y2="1175" stroke="black" stroke-width="2"/>

</svg>